<?xml version="1.0" encoding="UTF-8"?>
<svg
  xmlns="http://www.w3.org/2000/svg"

  viewBox="24 32 80 64"
>
  <!-- Back cradle (shadow layer) -->
  <path
    d="M26 62 L46 44 L56 44 L40 60 L50 76 L36 92 L18 74 L26 62 Z"
    fill="#2A6F97"
  />
  <path
    d="M102 62 L82 44 L72 44 L88 60 L78 76 L92 92 L110 74 L102 62 Z"
    fill="#2A6F97"
  />
  <!-- Front cradle -->
  <path
    d="M30 60 L48 42 L58 42 L42 58 L52 74 L38 88 L22 72 L30 60 Z"
    fill="#4FC3F7"
  />
  <path
    d="M98 60 L80 42 L70 42 L86 58 L76 74 L90 88 L106 72 L98 60 Z"
    fill="#4FC3F7"
  />
  <!-- Main body (back depth) -->
  <path
    d="M50 40 H78 V48 C78 64 70 70 64 70 C58 70 50 64 50 48 V40 Z"
    fill="#B59A5A"
  />
  <!-- Main body (front) -->
  <path
    d="M48 38 H80 V48 C80 65 70 72 64 72 C58 72 48 65 48 48 V38 Z"
    fill="#D7BA7D"
  />
  <!-- Handles -->
  <path
    d="M48 42 C38 42 36 55 48 58 L48 52 C42 52 42 46 48 46 V42 Z"
    fill="#D7BA7D"
  />
  <path
    d="M80 42 C90 42 92 55 80 58 L80 52 C86 52 86 46 80 46 V42 Z"
    fill="#D7BA7D"
  />
  <!-- Neck -->
  <path
    d="M58 72 L62 80 H66 L70 72 H58 Z"
    fill="#A88F52"
  />
  <!-- Base -->
  <path
    d="M54 80 H74 L78 88 H50 L54 80 Z"
    fill="#D7BA7D"
  />
</svg>